# xmcd
#
# Track frame offsets: 
#        150
#        13928
#        16692
#        37430
#        56636
#        73180
#        96405
#        121312
#        154751
#        170870
#        185931
#        213471
#        226140
#
# Disc length: 3222 seconds
#
# Revision: 2
# Processed by: cddbd v1.5.2PL0 Copyright (c) Steve Scherf et al.
# Submitted via: ExactAudioCopyFreeDBPlugin 1.0
#
DISCID=c20c940d
DTITLE=Eric Bibb - Troubadour Live
DYEAR=2011
DGENRE=Blues
TTITLE0=The Cape
TTITLE1=Introducing Staffan Astner
TTITLE2=New Home
TTITLE3=Troubadour
TTITLE4=Shavin' Talk
TTITLE5=Walkin' Blues Again
TTITLE6=Tell Riley
TTITLE7=Connected
TTITLE8=New World Comin' Through
TTITLE9=Thanks For The Joy
TTITLE10=For You
TTITLE11=Put Your Love First
TTITLE12=If You Were Not My Woman
EXTD=
EXTT0=
EXTT1=
EXTT2=
EXTT3=
EXTT4=
EXTT5=
EXTT6=
EXTT7=
EXTT8=
EXTT9=
EXTT10=
EXTT11=
EXTT12=
PLAYORDER=
